<svg width="1280" height="640" xmlns="http://www.w3.org/2000/svg">
  <defs>
    <linearGradient id="bg" x1="0%" y1="0%" x2="100%" y2="100%">
      <stop offset="0%" style="stop-color:#1b4332;stop-opacity:1" />
      <stop offset="100%" style="stop-color:#2d6a4f;stop-opacity:1" />
    </linearGradient>
  </defs>

  <!-- Background -->
  <rect width="1280" height="640" fill="url(#bg)" />

  <!-- Subtle grid pattern -->
  <g opacity="0.05">
    <line x1="0" y1="80" x2="1280" y2="80" stroke="white" stroke-width="1"/>
    <line x1="0" y1="160" x2="1280" y2="160" stroke="white" stroke-width="1"/>
    <line x1="0" y1="240" x2="1280" y2="240" stroke="white" stroke-width="1"/>
    <line x1="0" y1="320" x2="1280" y2="320" stroke="white" stroke-width="1"/>
    <line x1="0" y1="400" x2="1280" y2="400" stroke="white" stroke-width="1"/>
    <line x1="0" y1="480" x2="1280" y2="480" stroke="white" stroke-width="1"/>
    <line x1="0" y1="560" x2="1280" y2="560" stroke="white" stroke-width="1"/>
    <line x1="160" y1="0" x2="160" y2="640" stroke="white" stroke-width="1"/>
    <line x1="320" y1="0" x2="320" y2="640" stroke="white" stroke-width="1"/>
    <line x1="480" y1="0" x2="480" y2="640" stroke="white" stroke-width="1"/>
    <line x1="640" y1="0" x2="640" y2="640" stroke="white" stroke-width="1"/>
    <line x1="800" y1="0" x2="800" y2="640" stroke="white" stroke-width="1"/>
    <line x1="960" y1="0" x2="960" y2="640" stroke="white" stroke-width="1"/>
    <line x1="1120" y1="0" x2="1120" y2="640" stroke="white" stroke-width="1"/>
  </g>

  <!-- Company name -->
  <text x="640" y="200" font-family="system-ui, -apple-system, 'Segoe UI', sans-serif" font-size="72" font-weight="700" fill="white" text-anchor="middle" letter-spacing="2">
    Amplified Partners
  </text>

  <!-- Subtitle -->
  <text x="640" y="280" font-family="system-ui, -apple-system, 'Segoe UI', sans-serif" font-size="36" font-weight="300" fill="#95d5b2" text-anchor="middle">
    The Method
  </text>

  <!-- Divider -->
  <line x1="440" y1="320" x2="840" y2="320" stroke="#52b788" stroke-width="2" opacity="0.6"/>

  <!-- Tagline -->
  <text x="640" y="380" font-family="system-ui, -apple-system, 'Segoe UI', sans-serif" font-size="24" font-weight="400" fill="#b7e4c7" text-anchor="middle">
    Bounded autonomy for AI-native compound engineering
  </text>

  <!-- Principles -->
  <text x="640" y="440" font-family="system-ui, -apple-system, 'Segoe UI', sans-serif" font-size="18" font-weight="300" fill="#74c69d" text-anchor="middle" letter-spacing="3">
    HONESTY · TRANSPARENCY · ATTRIBUTION · WIN-WIN
  </text>

  <!-- Bottom bar -->
  <rect x="0" y="580" width="1280" height="60" fill="#1b4332" opacity="0.5"/>
  <text x="640" y="618" font-family="system-ui, -apple-system, 'Segoe UI', sans-serif" font-size="16" font-weight="400" fill="#95d5b2" text-anchor="middle">
    amplifiedpartners.ai — Defrictioning small businesses, one by one
  </text>
</svg>
